<svg xmlns="http://www.w3.org/2000/svg" xmlns:ns1="http://www.w3.org/1999/xlink" width="414" height="404" viewBox="0 0 414 404">
<style>
      .fill { fill: black; }
      .stroke { stroke: black; }
      @media (prefers-color-scheme: dark) {
        .fill { fill: white; }
        .stroke { stroke: white; }
      }
    </style><defs>
<g>
<g id="glyph-0-0">
<path d="M 9.453125 -3.296875 C 9.703125 -3.296875 9.953125 -3.296875 9.953125 -3.578125 C 9.953125 -3.875 9.703125 -3.875 9.453125 -3.875 L 1.6875 -3.875 C 1.453125 -3.875 1.1875 -3.875 1.1875 -3.578125 C 1.1875 -3.296875 1.453125 -3.296875 1.6875 -3.296875 Z M 9.453125 -3.296875 " />
</g>
<g id="glyph-1-0">
<path d="M 2.640625 -5.15625 C 2.390625 -5.140625 2.34375 -5.125 2.34375 -4.984375 C 2.34375 -4.84375 2.40625 -4.84375 2.671875 -4.84375 L 3.328125 -4.84375 C 4.546875 -4.84375 5.09375 -3.84375 5.09375 -2.46875 C 5.09375 -0.59375 4.109375 -0.09375 3.40625 -0.09375 C 2.71875 -0.09375 1.546875 -0.421875 1.140625 -1.359375 C 1.59375 -1.296875 2.015625 -1.546875 2.015625 -2.0625 C 2.015625 -2.484375 1.703125 -2.765625 1.3125 -2.765625 C 0.96875 -2.765625 0.59375 -2.5625 0.59375 -2.015625 C 0.59375 -0.75 1.859375 0.296875 3.453125 0.296875 C 5.15625 0.296875 6.421875 -1 6.421875 -2.453125 C 6.421875 -3.765625 5.359375 -4.8125 3.984375 -5.046875 C 5.234375 -5.40625 6.03125 -6.453125 6.03125 -7.578125 C 6.03125 -8.703125 4.859375 -9.53125 3.46875 -9.53125 C 2.03125 -9.53125 0.96875 -8.65625 0.96875 -7.609375 C 0.96875 -7.046875 1.421875 -6.921875 1.640625 -6.921875 C 1.9375 -6.921875 2.28125 -7.140625 2.28125 -7.578125 C 2.28125 -8.03125 1.9375 -8.234375 1.625 -8.234375 C 1.53125 -8.234375 1.5 -8.234375 1.46875 -8.21875 C 2.015625 -9.1875 3.359375 -9.1875 3.421875 -9.1875 C 3.90625 -9.1875 4.828125 -8.984375 4.828125 -7.578125 C 4.828125 -7.296875 4.796875 -6.5 4.375 -5.875 C 3.9375 -5.25 3.453125 -5.203125 3.0625 -5.1875 Z M 2.640625 -5.15625 " />
</g>
<g id="glyph-1-1">
<path d="M 4.125 -9.1875 C 4.125 -9.53125 4.125 -9.53125 3.84375 -9.53125 C 3.5 -9.15625 2.78125 -8.625 1.3125 -8.625 L 1.3125 -8.203125 C 1.640625 -8.203125 2.359375 -8.203125 3.140625 -8.578125 L 3.140625 -1.109375 C 3.140625 -0.59375 3.09375 -0.421875 1.84375 -0.421875 L 1.390625 -0.421875 L 1.390625 0 C 1.78125 -0.03125 3.171875 -0.03125 3.640625 -0.03125 C 4.109375 -0.03125 5.5 -0.03125 5.875 0 L 5.875 -0.421875 L 5.4375 -0.421875 C 4.171875 -0.421875 4.125 -0.59375 4.125 -1.109375 Z M 4.125 -9.1875 " />
</g>
<g id="glyph-1-2">
<path d="M 1.84375 -8.21875 C 2.453125 -8.015625 2.953125 -8 3.109375 -8 C 4.734375 -8 5.765625 -9.1875 5.765625 -9.390625 C 5.765625 -9.453125 5.734375 -9.53125 5.65625 -9.53125 C 5.625 -9.53125 5.59375 -9.53125 5.46875 -9.46875 C 4.65625 -9.125 3.96875 -9.078125 3.59375 -9.078125 C 2.65625 -9.078125 1.984375 -9.359375 1.703125 -9.484375 C 1.609375 -9.53125 1.578125 -9.53125 1.5625 -9.53125 C 1.453125 -9.53125 1.453125 -9.4375 1.453125 -9.203125 L 1.453125 -4.953125 C 1.453125 -4.6875 1.453125 -4.609375 1.625 -4.609375 C 1.6875 -4.609375 1.703125 -4.625 1.84375 -4.796875 C 2.25 -5.375 2.921875 -5.71875 3.640625 -5.71875 C 4.40625 -5.71875 4.78125 -5.015625 4.890625 -4.78125 C 5.140625 -4.21875 5.15625 -3.515625 5.15625 -2.96875 C 5.15625 -2.421875 5.15625 -1.609375 4.75 -0.96875 C 4.4375 -0.4375 3.875 -0.09375 3.234375 -0.09375 C 2.296875 -0.09375 1.359375 -0.734375 1.109375 -1.78125 C 1.171875 -1.75 1.265625 -1.734375 1.328125 -1.734375 C 1.578125 -1.734375 1.96875 -1.875 1.96875 -2.359375 C 1.96875 -2.765625 1.6875 -3 1.328125 -3 C 1.078125 -3 0.703125 -2.875 0.703125 -2.3125 C 0.703125 -1.09375 1.671875 0.296875 3.265625 0.296875 C 4.890625 0.296875 6.3125 -1.0625 6.3125 -2.890625 C 6.3125 -4.59375 5.15625 -6.015625 3.65625 -6.015625 C 2.84375 -6.015625 2.203125 -5.65625 1.84375 -5.25 Z M 1.84375 -8.21875 " />
</g>
<g id="glyph-2-0">
<path d="M 4.125 -9.1875 C 4.125 -9.53125 4.125 -9.53125 3.84375 -9.53125 C 3.5 -9.15625 2.78125 -8.625 1.3125 -8.625 L 1.3125 -8.203125 C 1.640625 -8.203125 2.359375 -8.203125 3.140625 -8.578125 L 3.140625 -1.109375 C 3.140625 -0.59375 3.09375 -0.421875 1.84375 -0.421875 L 1.390625 -0.421875 L 1.390625 0 C 1.78125 -0.03125 3.171875 -0.03125 3.640625 -0.03125 C 4.109375 -0.03125 5.5 -0.03125 5.875 0 L 5.875 -0.421875 L 5.4375 -0.421875 C 4.171875 -0.421875 4.125 -0.59375 4.125 -1.109375 Z M 4.125 -9.1875 " />
</g>
<g id="glyph-2-1">
<path d="M 2.640625 -5.15625 C 2.390625 -5.140625 2.34375 -5.125 2.34375 -4.984375 C 2.34375 -4.84375 2.40625 -4.84375 2.671875 -4.84375 L 3.328125 -4.84375 C 4.546875 -4.84375 5.09375 -3.84375 5.09375 -2.46875 C 5.09375 -0.59375 4.109375 -0.09375 3.40625 -0.09375 C 2.71875 -0.09375 1.546875 -0.421875 1.140625 -1.359375 C 1.59375 -1.296875 2.015625 -1.546875 2.015625 -2.0625 C 2.015625 -2.484375 1.703125 -2.765625 1.3125 -2.765625 C 0.96875 -2.765625 0.59375 -2.5625 0.59375 -2.015625 C 0.59375 -0.75 1.859375 0.296875 3.453125 0.296875 C 5.15625 0.296875 6.421875 -1 6.421875 -2.453125 C 6.421875 -3.765625 5.359375 -4.8125 3.984375 -5.046875 C 5.234375 -5.40625 6.03125 -6.453125 6.03125 -7.578125 C 6.03125 -8.703125 4.859375 -9.53125 3.46875 -9.53125 C 2.03125 -9.53125 0.96875 -8.65625 0.96875 -7.609375 C 0.96875 -7.046875 1.421875 -6.921875 1.640625 -6.921875 C 1.9375 -6.921875 2.28125 -7.140625 2.28125 -7.578125 C 2.28125 -8.03125 1.9375 -8.234375 1.625 -8.234375 C 1.53125 -8.234375 1.5 -8.234375 1.46875 -8.21875 C 2.015625 -9.1875 3.359375 -9.1875 3.421875 -9.1875 C 3.90625 -9.1875 4.828125 -8.984375 4.828125 -7.578125 C 4.828125 -7.296875 4.796875 -6.5 4.375 -5.875 C 3.9375 -5.25 3.453125 -5.203125 3.0625 -5.1875 Z M 2.640625 -5.15625 " />
</g>
<g id="glyph-2-2">
<path d="M 1.84375 -8.21875 C 2.453125 -8.015625 2.953125 -8 3.109375 -8 C 4.734375 -8 5.765625 -9.1875 5.765625 -9.390625 C 5.765625 -9.453125 5.734375 -9.53125 5.65625 -9.53125 C 5.625 -9.53125 5.59375 -9.53125 5.46875 -9.46875 C 4.65625 -9.125 3.96875 -9.078125 3.59375 -9.078125 C 2.65625 -9.078125 1.984375 -9.359375 1.703125 -9.484375 C 1.609375 -9.53125 1.578125 -9.53125 1.5625 -9.53125 C 1.453125 -9.53125 1.453125 -9.4375 1.453125 -9.203125 L 1.453125 -4.953125 C 1.453125 -4.6875 1.453125 -4.609375 1.625 -4.609375 C 1.6875 -4.609375 1.703125 -4.625 1.84375 -4.796875 C 2.25 -5.375 2.921875 -5.71875 3.640625 -5.71875 C 4.40625 -5.71875 4.78125 -5.015625 4.890625 -4.78125 C 5.140625 -4.21875 5.15625 -3.515625 5.15625 -2.96875 C 5.15625 -2.421875 5.15625 -1.609375 4.75 -0.96875 C 4.4375 -0.4375 3.875 -0.09375 3.234375 -0.09375 C 2.296875 -0.09375 1.359375 -0.734375 1.109375 -1.78125 C 1.171875 -1.75 1.265625 -1.734375 1.328125 -1.734375 C 1.578125 -1.734375 1.96875 -1.875 1.96875 -2.359375 C 1.96875 -2.765625 1.6875 -3 1.328125 -3 C 1.078125 -3 0.703125 -2.875 0.703125 -2.3125 C 0.703125 -1.09375 1.671875 0.296875 3.265625 0.296875 C 4.890625 0.296875 6.3125 -1.0625 6.3125 -2.890625 C 6.3125 -4.59375 5.15625 -6.015625 3.65625 -6.015625 C 2.84375 -6.015625 2.203125 -5.65625 1.84375 -5.25 Z M 1.84375 -8.21875 " />
</g>
<g id="glyph-3-0">
<path d="M 6.046875 -4.875 C 7.46875 -5.203125 8.578125 -6.109375 8.578125 -7.21875 C 8.578125 -8.609375 6.953125 -9.796875 4.890625 -9.796875 L 0.609375 -9.796875 L 0.609375 -9.375 L 0.890625 -9.375 C 1.921875 -9.375 1.96875 -9.234375 1.96875 -8.703125 L 1.96875 -1.09375 C 1.96875 -0.5625 1.921875 -0.421875 0.890625 -0.421875 L 0.609375 -0.421875 L 0.609375 0 C 0.9375 -0.03125 2.109375 -0.03125 2.53125 -0.03125 C 2.9375 -0.03125 4.125 -0.03125 4.453125 0 L 4.453125 -0.421875 L 4.171875 -0.421875 C 3.140625 -0.421875 3.09375 -0.5625 3.09375 -1.09375 L 3.09375 -4.765625 L 4.765625 -4.765625 C 5.328125 -4.765625 5.859375 -4.609375 6.234375 -4.203125 C 6.734375 -3.65625 6.734375 -3.359375 6.734375 -2.359375 C 6.734375 -1.234375 6.734375 -0.859375 7.359375 -0.25 C 7.578125 -0.03125 8.171875 0.296875 8.984375 0.296875 C 10.09375 0.296875 10.28125 -0.953125 10.28125 -1.25 C 10.28125 -1.328125 10.28125 -1.46875 10.125 -1.46875 C 9.984375 -1.46875 9.984375 -1.375 9.96875 -1.234375 C 9.890625 -0.375 9.484375 0.015625 9.015625 0.015625 C 8.359375 0.015625 8.21875 -0.65625 8.109375 -1.421875 C 8.09375 -1.515625 8 -2.140625 7.953125 -2.5 C 7.859375 -3.21875 7.796875 -3.671875 7.375 -4.109375 C 7.21875 -4.28125 6.84375 -4.65625 6.046875 -4.875 Z M 4.703125 -5.046875 L 3.09375 -5.046875 L 3.09375 -8.8125 C 3.09375 -9.140625 3.09375 -9.3125 3.40625 -9.359375 C 3.53125 -9.375 3.953125 -9.375 4.25 -9.375 C 5.40625 -9.375 7.25 -9.375 7.25 -7.21875 C 7.25 -5.96875 6.5625 -5.046875 4.703125 -5.046875 Z M 4.703125 -5.046875 " />
</g>
<g id="glyph-3-1">
<path d="M 5.5 -3.328125 C 5.8125 -3.328125 5.84375 -3.328125 5.84375 -3.59375 C 5.84375 -5.046875 5.0625 -6.390625 3.328125 -6.390625 C 1.6875 -6.390625 0.4375 -4.921875 0.4375 -3.140625 C 0.4375 -1.25 1.890625 0.140625 3.484375 0.140625 C 5.1875 0.140625 5.84375 -1.40625 5.84375 -1.703125 C 5.84375 -1.796875 5.765625 -1.84375 5.6875 -1.84375 C 5.5625 -1.84375 5.53125 -1.78125 5.515625 -1.703125 C 5.140625 -0.5 4.171875 -0.171875 3.578125 -0.171875 C 2.96875 -0.171875 1.515625 -0.578125 1.515625 -3.0625 L 1.515625 -3.328125 Z M 1.53125 -3.59375 C 1.65625 -5.859375 2.90625 -6.109375 3.3125 -6.109375 C 4.84375 -6.109375 4.9375 -4.09375 4.953125 -3.59375 Z M 1.53125 -3.59375 " />
</g>
<g id="glyph-3-2">
<path d="M 3.109375 -8.703125 C 3.109375 -9.234375 3.15625 -9.375 4.234375 -9.375 L 4.546875 -9.375 L 4.546875 -9.796875 C 4.203125 -9.765625 2.96875 -9.765625 2.53125 -9.765625 C 2.109375 -9.765625 0.859375 -9.765625 0.515625 -9.796875 L 0.515625 -9.375 L 0.828125 -9.375 C 1.90625 -9.375 1.953125 -9.234375 1.953125 -8.703125 L 1.953125 -1.09375 C 1.953125 -0.5625 1.90625 -0.421875 0.828125 -0.421875 L 0.515625 -0.421875 L 0.515625 0 C 0.859375 -0.03125 2.09375 -0.03125 2.53125 -0.03125 C 2.953125 -0.03125 4.203125 -0.03125 4.546875 0 L 4.546875 -0.421875 L 4.234375 -0.421875 C 3.15625 -0.421875 3.109375 -0.5625 3.109375 -1.09375 Z M 3.109375 -8.703125 " />
</g>
<g id="glyph-3-3">
<path d="M 10.28125 -3.484375 C 10.28125 -4.8125 10.28125 -5.21875 9.953125 -5.6875 C 9.53125 -6.234375 8.859375 -6.328125 8.375 -6.328125 C 7.1875 -6.328125 6.578125 -5.46875 6.359375 -4.90625 C 6.15625 -6.015625 5.375 -6.328125 4.46875 -6.328125 C 3.078125 -6.328125 2.53125 -5.140625 2.421875 -4.84375 L 2.40625 -4.84375 L 2.40625 -6.328125 L 0.453125 -6.171875 L 0.453125 -5.75 C 1.4375 -5.75 1.546875 -5.65625 1.546875 -4.953125 L 1.546875 -1.0625 C 1.546875 -0.421875 1.390625 -0.421875 0.453125 -0.421875 L 0.453125 0 C 0.828125 -0.03125 1.609375 -0.03125 2.015625 -0.03125 C 2.421875 -0.03125 3.203125 -0.03125 3.578125 0 L 3.578125 -0.421875 C 2.65625 -0.421875 2.484375 -0.421875 2.484375 -1.0625 L 2.484375 -3.734375 C 2.484375 -5.234375 3.46875 -6.03125 4.359375 -6.03125 C 5.25 -6.03125 5.453125 -5.3125 5.453125 -4.4375 L 5.453125 -1.0625 C 5.453125 -0.421875 5.296875 -0.421875 4.359375 -0.421875 L 4.359375 0 C 4.734375 -0.03125 5.515625 -0.03125 5.90625 -0.03125 C 6.328125 -0.03125 7.09375 -0.03125 7.46875 0 L 7.46875 -0.421875 C 6.5625 -0.421875 6.390625 -0.421875 6.390625 -1.0625 L 6.390625 -3.734375 C 6.390625 -5.234375 7.375 -6.03125 8.265625 -6.03125 C 9.15625 -6.03125 9.359375 -5.3125 9.359375 -4.4375 L 9.359375 -1.0625 C 9.359375 -0.421875 9.1875 -0.421875 8.265625 -0.421875 L 8.265625 0 C 8.640625 -0.03125 9.40625 -0.03125 9.8125 -0.03125 C 10.234375 -0.03125 11 -0.03125 11.375 0 L 11.375 -0.421875 C 10.65625 -0.421875 10.296875 -0.421875 10.28125 -0.84375 Z M 10.28125 -3.484375 " />
</g>
<g id="glyph-4-0">
<path d="M 6.796875 -5.859375 C 6.34375 -5.765625 6.171875 -5.421875 6.171875 -5.15625 C 6.171875 -4.8125 6.4375 -4.6875 6.640625 -4.6875 C 7.078125 -4.6875 7.375 -5.0625 7.375 -5.453125 C 7.375 -6.046875 6.6875 -6.328125 6.078125 -6.328125 C 5.203125 -6.328125 4.71875 -5.46875 4.59375 -5.1875 C 4.265625 -6.265625 3.375 -6.328125 3.109375 -6.328125 C 1.65625 -6.328125 0.875 -4.453125 0.875 -4.125 C 0.875 -4.078125 0.9375 -4 1.03125 -4 C 1.140625 -4 1.171875 -4.09375 1.203125 -4.140625 C 1.6875 -5.734375 2.65625 -6.03125 3.0625 -6.03125 C 3.71875 -6.03125 3.84375 -5.4375 3.84375 -5.09375 C 3.84375 -4.78125 3.765625 -4.453125 3.578125 -3.765625 L 3.09375 -1.796875 C 2.890625 -0.9375 2.46875 -0.140625 1.703125 -0.140625 C 1.640625 -0.140625 1.28125 -0.140625 0.96875 -0.328125 C 1.484375 -0.4375 1.609375 -0.859375 1.609375 -1.03125 C 1.609375 -1.3125 1.390625 -1.484375 1.125 -1.484375 C 0.78125 -1.484375 0.40625 -1.1875 0.40625 -0.734375 C 0.40625 -0.125 1.078125 0.140625 1.6875 0.140625 C 2.375 0.140625 2.875 -0.40625 3.171875 -0.984375 C 3.40625 -0.140625 4.109375 0.140625 4.640625 0.140625 C 6.109375 0.140625 6.890625 -1.734375 6.890625 -2.046875 C 6.890625 -2.125 6.828125 -2.1875 6.734375 -2.1875 C 6.609375 -2.1875 6.59375 -2.109375 6.5625 -2 C 6.171875 -0.734375 5.328125 -0.140625 4.6875 -0.140625 C 4.1875 -0.140625 3.921875 -0.515625 3.921875 -1.109375 C 3.921875 -1.421875 3.96875 -1.65625 4.203125 -2.59375 L 4.703125 -4.546875 C 4.921875 -5.40625 5.40625 -6.03125 6.0625 -6.03125 C 6.09375 -6.03125 6.5 -6.03125 6.796875 -5.859375 Z M 6.796875 -5.859375 " />
</g>
<g id="glyph-5-0">
<path d="M 4.46875 -2 C 4.46875 -3.1875 3.65625 -4.1875 2.578125 -4.1875 C 2.109375 -4.1875 1.671875 -4.03125 1.3125 -3.671875 L 1.3125 -5.625 C 1.515625 -5.5625 1.84375 -5.5 2.15625 -5.5 C 3.390625 -5.5 4.09375 -6.40625 4.09375 -6.53125 C 4.09375 -6.59375 4.0625 -6.640625 3.984375 -6.640625 C 3.984375 -6.640625 3.953125 -6.640625 3.90625 -6.609375 C 3.703125 -6.515625 3.21875 -6.3125 2.546875 -6.3125 C 2.15625 -6.3125 1.6875 -6.390625 1.21875 -6.59375 C 1.140625 -6.625 1.125 -6.625 1.109375 -6.625 C 1 -6.625 1 -6.546875 1 -6.390625 L 1 -3.4375 C 1 -3.265625 1 -3.1875 1.140625 -3.1875 C 1.21875 -3.1875 1.234375 -3.203125 1.28125 -3.265625 C 1.390625 -3.421875 1.75 -3.96875 2.5625 -3.96875 C 3.078125 -3.96875 3.328125 -3.515625 3.40625 -3.328125 C 3.5625 -2.953125 3.59375 -2.578125 3.59375 -2.078125 C 3.59375 -1.71875 3.59375 -1.125 3.34375 -0.703125 C 3.109375 -0.3125 2.734375 -0.0625 2.28125 -0.0625 C 1.5625 -0.0625 0.984375 -0.59375 0.8125 -1.171875 C 0.84375 -1.171875 0.875 -1.15625 0.984375 -1.15625 C 1.3125 -1.15625 1.484375 -1.40625 1.484375 -1.640625 C 1.484375 -1.890625 1.3125 -2.140625 0.984375 -2.140625 C 0.84375 -2.140625 0.5 -2.0625 0.5 -1.609375 C 0.5 -0.75 1.1875 0.21875 2.296875 0.21875 C 3.453125 0.21875 4.46875 -0.734375 4.46875 -2 Z M 4.46875 -2 " />
</g>
<g id="glyph-5-1">
<path d="M 2.9375 -6.375 C 2.9375 -6.625 2.9375 -6.640625 2.703125 -6.640625 C 2.078125 -6 1.203125 -6 0.890625 -6 L 0.890625 -5.6875 C 1.09375 -5.6875 1.671875 -5.6875 2.1875 -5.953125 L 2.1875 -0.78125 C 2.1875 -0.421875 2.15625 -0.3125 1.265625 -0.3125 L 0.953125 -0.3125 L 0.953125 0 C 1.296875 -0.03125 2.15625 -0.03125 2.5625 -0.03125 C 2.953125 -0.03125 3.828125 -0.03125 4.171875 0 L 4.171875 -0.3125 L 3.859375 -0.3125 C 2.953125 -0.3125 2.9375 -0.421875 2.9375 -0.78125 Z M 2.9375 -6.375 " />
</g>
<g id="glyph-5-2">
<path d="M 4.75 -6.078125 C 4.828125 -6.1875 4.828125 -6.203125 4.828125 -6.421875 L 2.40625 -6.421875 C 1.203125 -6.421875 1.171875 -6.546875 1.140625 -6.734375 L 0.890625 -6.734375 L 0.5625 -4.6875 L 0.8125 -4.6875 C 0.84375 -4.84375 0.921875 -5.46875 1.0625 -5.59375 C 1.125 -5.65625 1.90625 -5.65625 2.03125 -5.65625 L 4.09375 -5.65625 C 3.984375 -5.5 3.203125 -4.40625 2.984375 -4.078125 C 2.078125 -2.734375 1.75 -1.34375 1.75 -0.328125 C 1.75 -0.234375 1.75 0.21875 2.21875 0.21875 C 2.671875 0.21875 2.671875 -0.234375 2.671875 -0.328125 L 2.671875 -0.84375 C 2.671875 -1.390625 2.703125 -1.9375 2.78125 -2.46875 C 2.828125 -2.703125 2.953125 -3.5625 3.40625 -4.171875 Z M 4.75 -6.078125 " />
</g>
<g id="glyph-5-3">
<path d="M 1.265625 -0.765625 L 2.328125 -1.796875 C 3.875 -3.171875 4.46875 -3.703125 4.46875 -4.703125 C 4.46875 -5.84375 3.578125 -6.640625 2.359375 -6.640625 C 1.234375 -6.640625 0.5 -5.71875 0.5 -4.828125 C 0.5 -4.28125 1 -4.28125 1.03125 -4.28125 C 1.203125 -4.28125 1.546875 -4.390625 1.546875 -4.8125 C 1.546875 -5.0625 1.359375 -5.328125 1.015625 -5.328125 C 0.9375 -5.328125 0.921875 -5.328125 0.890625 -5.3125 C 1.109375 -5.96875 1.65625 -6.328125 2.234375 -6.328125 C 3.140625 -6.328125 3.5625 -5.515625 3.5625 -4.703125 C 3.5625 -3.90625 3.078125 -3.125 2.515625 -2.5 L 0.609375 -0.375 C 0.5 -0.265625 0.5 -0.234375 0.5 0 L 4.203125 0 L 4.46875 -1.734375 L 4.234375 -1.734375 C 4.171875 -1.4375 4.109375 -1 4 -0.84375 C 3.9375 -0.765625 3.28125 -0.765625 3.0625 -0.765625 Z M 1.265625 -0.765625 " />
</g>
<g id="glyph-5-4">
<path d="M 2.890625 -3.515625 C 3.703125 -3.78125 4.28125 -4.46875 4.28125 -5.265625 C 4.28125 -6.078125 3.40625 -6.640625 2.453125 -6.640625 C 1.453125 -6.640625 0.6875 -6.046875 0.6875 -5.28125 C 0.6875 -4.953125 0.90625 -4.765625 1.203125 -4.765625 C 1.5 -4.765625 1.703125 -4.984375 1.703125 -5.28125 C 1.703125 -5.765625 1.234375 -5.765625 1.09375 -5.765625 C 1.390625 -6.265625 2.046875 -6.390625 2.40625 -6.390625 C 2.828125 -6.390625 3.375 -6.171875 3.375 -5.28125 C 3.375 -5.15625 3.34375 -4.578125 3.09375 -4.140625 C 2.796875 -3.65625 2.453125 -3.625 2.203125 -3.625 C 2.125 -3.609375 1.890625 -3.59375 1.8125 -3.59375 C 1.734375 -3.578125 1.671875 -3.5625 1.671875 -3.46875 C 1.671875 -3.359375 1.734375 -3.359375 1.90625 -3.359375 L 2.34375 -3.359375 C 3.15625 -3.359375 3.53125 -2.6875 3.53125 -1.703125 C 3.53125 -0.34375 2.84375 -0.0625 2.40625 -0.0625 C 1.96875 -0.0625 1.21875 -0.234375 0.875 -0.8125 C 1.21875 -0.765625 1.53125 -0.984375 1.53125 -1.359375 C 1.53125 -1.71875 1.265625 -1.921875 0.984375 -1.921875 C 0.734375 -1.921875 0.421875 -1.78125 0.421875 -1.34375 C 0.421875 -0.4375 1.34375 0.21875 2.4375 0.21875 C 3.65625 0.21875 4.5625 -0.6875 4.5625 -1.703125 C 4.5625 -2.515625 3.921875 -3.296875 2.890625 -3.515625 Z M 2.890625 -3.515625 " />
</g>
<g id="glyph-5-5">
<path d="M 3.65625 -3.171875 L 3.65625 -2.84375 C 3.65625 -0.515625 2.625 -0.0625 2.046875 -0.0625 C 1.875 -0.0625 1.328125 -0.078125 1.0625 -0.421875 C 1.5 -0.421875 1.578125 -0.703125 1.578125 -0.875 C 1.578125 -1.1875 1.34375 -1.328125 1.125 -1.328125 C 0.96875 -1.328125 0.671875 -1.25 0.671875 -0.859375 C 0.671875 -0.1875 1.203125 0.21875 2.046875 0.21875 C 3.34375 0.21875 4.5625 -1.140625 4.5625 -3.28125 C 4.5625 -5.96875 3.40625 -6.640625 2.515625 -6.640625 C 1.96875 -6.640625 1.484375 -6.453125 1.0625 -6.015625 C 0.640625 -5.5625 0.421875 -5.140625 0.421875 -4.390625 C 0.421875 -3.15625 1.296875 -2.171875 2.40625 -2.171875 C 3.015625 -2.171875 3.421875 -2.59375 3.65625 -3.171875 Z M 2.421875 -2.40625 C 2.265625 -2.40625 1.796875 -2.40625 1.5 -3.03125 C 1.3125 -3.40625 1.3125 -3.890625 1.3125 -4.390625 C 1.3125 -4.921875 1.3125 -5.390625 1.53125 -5.765625 C 1.796875 -6.265625 2.171875 -6.390625 2.515625 -6.390625 C 2.984375 -6.390625 3.3125 -6.046875 3.484375 -5.609375 C 3.59375 -5.28125 3.640625 -4.65625 3.640625 -4.203125 C 3.640625 -3.375 3.296875 -2.40625 2.421875 -2.40625 Z M 2.421875 -2.40625 " />
</g>
<g id="glyph-5-6">
<path d="M 1.3125 -3.265625 L 1.3125 -3.515625 C 1.3125 -6.03125 2.546875 -6.390625 3.0625 -6.390625 C 3.296875 -6.390625 3.71875 -6.328125 3.9375 -5.984375 C 3.78125 -5.984375 3.390625 -5.984375 3.390625 -5.546875 C 3.390625 -5.234375 3.625 -5.078125 3.84375 -5.078125 C 4 -5.078125 4.3125 -5.171875 4.3125 -5.5625 C 4.3125 -6.15625 3.875 -6.640625 3.046875 -6.640625 C 1.765625 -6.640625 0.421875 -5.359375 0.421875 -3.15625 C 0.421875 -0.484375 1.578125 0.21875 2.5 0.21875 C 3.609375 0.21875 4.5625 -0.71875 4.5625 -2.03125 C 4.5625 -3.296875 3.671875 -4.25 2.5625 -4.25 C 1.890625 -4.25 1.515625 -3.75 1.3125 -3.265625 Z M 2.5 -0.0625 C 1.875 -0.0625 1.578125 -0.65625 1.515625 -0.8125 C 1.328125 -1.28125 1.328125 -2.078125 1.328125 -2.25 C 1.328125 -3.03125 1.65625 -4.03125 2.546875 -4.03125 C 2.71875 -4.03125 3.171875 -4.03125 3.484375 -3.40625 C 3.65625 -3.046875 3.65625 -2.53125 3.65625 -2.046875 C 3.65625 -1.5625 3.65625 -1.0625 3.484375 -0.703125 C 3.1875 -0.109375 2.734375 -0.0625 2.5 -0.0625 Z M 2.5 -0.0625 " />
</g>
<g id="glyph-5-7">
<path d="M 1.625 -4.5625 C 1.171875 -4.859375 1.125 -5.1875 1.125 -5.359375 C 1.125 -5.96875 1.78125 -6.390625 2.484375 -6.390625 C 3.203125 -6.390625 3.84375 -5.875 3.84375 -5.15625 C 3.84375 -4.578125 3.453125 -4.109375 2.859375 -3.765625 Z M 3.078125 -3.609375 C 3.796875 -3.984375 4.28125 -4.5 4.28125 -5.15625 C 4.28125 -6.078125 3.40625 -6.640625 2.5 -6.640625 C 1.5 -6.640625 0.6875 -5.90625 0.6875 -4.96875 C 0.6875 -4.796875 0.703125 -4.34375 1.125 -3.875 C 1.234375 -3.765625 1.609375 -3.515625 1.859375 -3.34375 C 1.28125 -3.046875 0.421875 -2.5 0.421875 -1.5 C 0.421875 -0.453125 1.4375 0.21875 2.484375 0.21875 C 3.609375 0.21875 4.5625 -0.609375 4.5625 -1.671875 C 4.5625 -2.03125 4.453125 -2.484375 4.0625 -2.90625 C 3.875 -3.109375 3.71875 -3.203125 3.078125 -3.609375 Z M 2.078125 -3.1875 L 3.3125 -2.40625 C 3.59375 -2.21875 4.0625 -1.921875 4.0625 -1.3125 C 4.0625 -0.578125 3.3125 -0.0625 2.5 -0.0625 C 1.640625 -0.0625 0.921875 -0.671875 0.921875 -1.5 C 0.921875 -2.078125 1.234375 -2.71875 2.078125 -3.1875 Z M 2.078125 -3.1875 " />
</g>
<g id="glyph-5-8">
<path d="M 2.9375 -1.640625 L 2.9375 -0.78125 C 2.9375 -0.421875 2.90625 -0.3125 2.171875 -0.3125 L 1.96875 -0.3125 L 1.96875 0 C 2.375 -0.03125 2.890625 -0.03125 3.3125 -0.03125 C 3.734375 -0.03125 4.25 -0.03125 4.671875 0 L 4.671875 -0.3125 L 4.453125 -0.3125 C 3.71875 -0.3125 3.703125 -0.421875 3.703125 -0.78125 L 3.703125 -1.640625 L 4.6875 -1.640625 L 4.6875 -1.953125 L 3.703125 -1.953125 L 3.703125 -6.484375 C 3.703125 -6.6875 3.703125 -6.75 3.53125 -6.75 C 3.453125 -6.75 3.421875 -6.75 3.34375 -6.625 L 0.28125 -1.953125 L 0.28125 -1.640625 Z M 2.984375 -1.953125 L 0.5625 -1.953125 L 2.984375 -5.671875 Z M 2.984375 -1.953125 " />
</g>
<g id="glyph-5-9">
<path d="M 4.578125 -3.1875 C 4.578125 -3.984375 4.53125 -4.78125 4.1875 -5.515625 C 3.734375 -6.484375 2.90625 -6.640625 2.5 -6.640625 C 1.890625 -6.640625 1.171875 -6.375 0.75 -5.453125 C 0.4375 -4.765625 0.390625 -3.984375 0.390625 -3.1875 C 0.390625 -2.4375 0.421875 -1.546875 0.84375 -0.78125 C 1.265625 0.015625 2 0.21875 2.484375 0.21875 C 3.015625 0.21875 3.78125 0.015625 4.21875 -0.9375 C 4.53125 -1.625 4.578125 -2.40625 4.578125 -3.1875 Z M 2.484375 0 C 2.09375 0 1.5 -0.25 1.328125 -1.203125 C 1.21875 -1.796875 1.21875 -2.71875 1.21875 -3.3125 C 1.21875 -3.953125 1.21875 -4.609375 1.296875 -5.140625 C 1.484375 -6.328125 2.234375 -6.421875 2.484375 -6.421875 C 2.8125 -6.421875 3.46875 -6.234375 3.65625 -5.25 C 3.765625 -4.6875 3.765625 -3.9375 3.765625 -3.3125 C 3.765625 -2.5625 3.765625 -1.890625 3.65625 -1.25 C 3.5 -0.296875 2.9375 0 2.484375 0 Z M 2.484375 0 " />
</g>
</g>
<clipPath id="clip-0">
<path clip-rule="nonzero" d="M 102 387 L 109 387 L 109 397 L 102 397 Z M 102 387 " />
</clipPath>
<clipPath id="clip-1">
<path clip-rule="nonzero" d="M 167 387 L 172 387 L 172 397 L 167 397 Z M 167 387 " />
</clipPath>
<clipPath id="clip-2">
<path clip-rule="nonzero" d="M 225 387 L 231 387 L 231 396.246094 L 225 396.246094 Z M 225 387 " />
</clipPath>
<clipPath id="clip-3">
<path clip-rule="nonzero" d="M 289 387 L 295 387 L 295 396.246094 L 289 396.246094 Z M 289 387 " />
</clipPath>
<clipPath id="clip-4">
<path clip-rule="nonzero" d="M 13 301.777344 L 20 301.777344 L 20 312 L 13 312 Z M 13 301.777344 " />
</clipPath>
<clipPath id="clip-5">
<path clip-rule="nonzero" d="M 14 174.375 L 19 174.375 L 19 183.621094 L 14 183.621094 Z M 14 174.375 " />
</clipPath>
<clipPath id="clip-6">
<path clip-rule="nonzero" d="M 13 110.375 L 20 110.375 L 20 119.621094 L 13 119.621094 Z M 13 110.375 " />
</clipPath>
<clipPath id="clip-7">
<path clip-rule="nonzero" d="M 14 237.777344 L 19 237.777344 L 19 248 L 14 248 Z M 14 237.777344 " />
</clipPath>
<clipPath id="clip-8">
<path clip-rule="nonzero" d="M 396 206.097656 L 412.582031 206.097656 L 412.582031 215.902344 L 396 215.902344 Z M 396 206.097656 " />
</clipPath>
<clipPath id="clip-9">
<path clip-rule="nonzero" d="M 188 1.195312 L 204.386719 1.195312 L 204.386719 11 L 188 11 Z M 188 1.195312 " />
</clipPath>
<clipPath id="clip-10">
<path clip-rule="nonzero" d="M 93.269531 290.671875 L 101 290.671875 L 101 297 L 93.269531 297 Z M 93.269531 290.671875 " />
</clipPath>
<clipPath id="clip-11">
<path clip-rule="nonzero" d="M 101 292 L 106 292 L 106 299 L 101 299 Z M 101 292 " />
</clipPath>
<clipPath id="clip-12">
<path clip-rule="nonzero" d="M 155 290.671875 L 163 290.671875 L 163 297 L 155 297 Z M 155 290.671875 " />
</clipPath>
<clipPath id="clip-13">
<path clip-rule="nonzero" d="M 219 290.671875 L 227 290.671875 L 227 297 L 219 297 Z M 219 290.671875 " />
</clipPath>
<clipPath id="clip-14">
<path clip-rule="nonzero" d="M 227 292 L 237 292 L 237 299 L 227 299 Z M 227 292 " />
</clipPath>
<clipPath id="clip-15">
<path clip-rule="nonzero" d="M 283 290.671875 L 291 290.671875 L 291 297 L 283 297 Z M 283 290.671875 " />
</clipPath>
<clipPath id="clip-16">
<path clip-rule="nonzero" d="M 291 292 L 301 292 L 301 299 L 291 299 Z M 291 292 " />
</clipPath>
<clipPath id="clip-17">
<path clip-rule="nonzero" d="M 93.269531 162.671875 L 101 162.671875 L 101 169 L 93.269531 169 Z M 93.269531 162.671875 " />
</clipPath>
<clipPath id="clip-18">
<path clip-rule="nonzero" d="M 101 164 L 106.730469 164 L 106.730469 171 L 101 171 Z M 101 164 " />
</clipPath>
<clipPath id="clip-19">
<path clip-rule="nonzero" d="M 155 162.671875 L 163 162.671875 L 163 169 L 155 169 Z M 155 162.671875 " />
</clipPath>
<clipPath id="clip-20">
<path clip-rule="nonzero" d="M 163 164 L 173 164 L 173 171 L 163 171 Z M 163 164 " />
</clipPath>
<clipPath id="clip-21">
<path clip-rule="nonzero" d="M 219 162.671875 L 227 162.671875 L 227 169 L 219 169 Z M 219 162.671875 " />
</clipPath>
<clipPath id="clip-22">
<path clip-rule="nonzero" d="M 227 164 L 237 164 L 237 171 L 227 171 Z M 227 164 " />
</clipPath>
<clipPath id="clip-23">
<path clip-rule="nonzero" d="M 283 162.671875 L 291 162.671875 L 291 169 L 283 169 Z M 283 162.671875 " />
</clipPath>
<clipPath id="clip-24">
<path clip-rule="nonzero" d="M 291 164 L 301 164 L 301 171 L 291 171 Z M 291 164 " />
</clipPath>
<clipPath id="clip-25">
<path clip-rule="nonzero" d="M 93.269531 226.671875 L 101 226.671875 L 101 233 L 93.269531 233 Z M 93.269531 226.671875 " />
</clipPath>
<clipPath id="clip-26">
<path clip-rule="nonzero" d="M 101 228 L 106 228 L 106 235 L 101 235 Z M 101 228 " />
</clipPath>
<clipPath id="clip-27">
<path clip-rule="nonzero" d="M 155 226.671875 L 163 226.671875 L 163 233 L 155 233 Z M 155 226.671875 " />
</clipPath>
<clipPath id="clip-28">
<path clip-rule="nonzero" d="M 219 226.671875 L 227 226.671875 L 227 233 L 219 233 Z M 219 226.671875 " />
</clipPath>
<clipPath id="clip-29">
<path clip-rule="nonzero" d="M 227 228 L 237 228 L 237 235 L 227 235 Z M 227 228 " />
</clipPath>
<clipPath id="clip-30">
<path clip-rule="nonzero" d="M 283 226.671875 L 291 226.671875 L 291 233 L 283 233 Z M 283 226.671875 " />
</clipPath>
<clipPath id="clip-31">
<path clip-rule="nonzero" d="M 93.269531 98.671875 L 101 98.671875 L 101 105 L 93.269531 105 Z M 93.269531 98.671875 " />
</clipPath>
<clipPath id="clip-32">
<path clip-rule="nonzero" d="M 101 100 L 106 100 L 106 107 L 101 107 Z M 101 100 " />
</clipPath>
<clipPath id="clip-33">
<path clip-rule="nonzero" d="M 155 98.671875 L 163 98.671875 L 163 105 L 155 105 Z M 155 98.671875 " />
</clipPath>
<clipPath id="clip-34">
<path clip-rule="nonzero" d="M 219 98.671875 L 227 98.671875 L 227 105 L 219 105 Z M 219 98.671875 " />
</clipPath>
<clipPath id="clip-35">
<path clip-rule="nonzero" d="M 227 100 L 237 100 L 237 107 L 227 107 Z M 227 100 " />
</clipPath>
<clipPath id="clip-36">
<path clip-rule="nonzero" d="M 283 98.671875 L 291 98.671875 L 291 105 L 283 105 Z M 283 98.671875 " />
</clipPath>
<clipPath id="clip-37">
<path clip-rule="nonzero" d="M 291 100 L 301 100 L 301 107 L 291 107 Z M 291 100 " />
</clipPath>
<clipPath id="clip-38">
<path clip-rule="nonzero" d="M 347 226.671875 L 355 226.671875 L 355 233 L 347 233 Z M 347 226.671875 " />
</clipPath>
<clipPath id="clip-39">
<path clip-rule="nonzero" d="M 355 228 L 365 228 L 365 235 L 355 235 Z M 355 228 " />
</clipPath>
<clipPath id="clip-40">
<path clip-rule="nonzero" d="M 347 162.671875 L 355 162.671875 L 355 169 L 347 169 Z M 347 162.671875 " />
</clipPath>
<clipPath id="clip-41">
<path clip-rule="nonzero" d="M 355 164 L 365 164 L 365 171 L 355 171 Z M 355 164 " />
</clipPath>
<clipPath id="clip-42">
<path clip-rule="nonzero" d="M 347 98.671875 L 355 98.671875 L 355 105 L 347 105 Z M 347 98.671875 " />
</clipPath>
<clipPath id="clip-43">
<path clip-rule="nonzero" d="M 355 100 L 364 100 L 364 107 L 355 107 Z M 355 100 " />
</clipPath>
<clipPath id="clip-44">
<path clip-rule="nonzero" d="M 347 290.671875 L 355 290.671875 L 355 297 L 347 297 Z M 347 290.671875 " />
</clipPath>
<clipPath id="clip-45">
<path clip-rule="nonzero" d="M 355 292 L 365 292 L 365 299 L 355 299 Z M 355 292 " />
</clipPath>
<clipPath id="clip-46">
<path clip-rule="nonzero" d="M 283 354.671875 L 291 354.671875 L 291 361 L 283 361 Z M 283 354.671875 " />
</clipPath>
<clipPath id="clip-47">
<path clip-rule="nonzero" d="M 219 354.671875 L 227 354.671875 L 227 361 L 219 361 Z M 219 354.671875 " />
</clipPath>
<clipPath id="clip-48">
<path clip-rule="nonzero" d="M 227 356 L 237 356 L 237 363 L 227 363 Z M 227 356 " />
</clipPath>
<clipPath id="clip-49">
<path clip-rule="nonzero" d="M 155 354.671875 L 163 354.671875 L 163 361 L 155 361 Z M 155 354.671875 " />
</clipPath>
<clipPath id="clip-50">
<path clip-rule="nonzero" d="M 163 356 L 173 356 L 173 363 L 163 363 Z M 163 356 " />
</clipPath>
<clipPath id="clip-51">
<path clip-rule="nonzero" d="M 93.269531 354.671875 L 101 354.671875 L 101 361 L 93.269531 361 Z M 93.269531 354.671875 " />
</clipPath>
<clipPath id="clip-52">
<path clip-rule="nonzero" d="M 29.269531 290.671875 L 37 290.671875 L 37 297 L 29.269531 297 Z M 29.269531 290.671875 " />
</clipPath>
<clipPath id="clip-53">
<path clip-rule="nonzero" d="M 37 292 L 42 292 L 42 299 L 37 299 Z M 37 292 " />
</clipPath>
<clipPath id="clip-54">
<path clip-rule="nonzero" d="M 29.269531 226.671875 L 37 226.671875 L 37 233 L 29.269531 233 Z M 29.269531 226.671875 " />
</clipPath>
<clipPath id="clip-55">
<path clip-rule="nonzero" d="M 29.269531 162.671875 L 37 162.671875 L 37 169 L 29.269531 169 Z M 29.269531 162.671875 " />
</clipPath>
<clipPath id="clip-56">
<path clip-rule="nonzero" d="M 29.269531 98.671875 L 37 98.671875 L 37 105 L 29.269531 105 Z M 29.269531 98.671875 " />
</clipPath>
<clipPath id="clip-57">
<path clip-rule="nonzero" d="M 37 100 L 42 100 L 42 107 L 37 107 Z M 37 100 " />
</clipPath>
<clipPath id="clip-58">
<path clip-rule="nonzero" d="M 155 34.671875 L 163 34.671875 L 163 41 L 155 41 Z M 155 34.671875 " />
</clipPath>
<clipPath id="clip-59">
<path clip-rule="nonzero" d="M 163 36 L 173 36 L 173 43 L 163 43 Z M 163 36 " />
</clipPath>
<clipPath id="clip-60">
<path clip-rule="nonzero" d="M 219 34.671875 L 227 34.671875 L 227 41 L 219 41 Z M 219 34.671875 " />
</clipPath>
<clipPath id="clip-61">
<path clip-rule="nonzero" d="M 93.269531 34.671875 L 101 34.671875 L 101 41 L 93.269531 41 Z M 93.269531 34.671875 " />
</clipPath>
<clipPath id="clip-62">
<path clip-rule="nonzero" d="M 101 36 L 106 36 L 106 43 L 101 43 Z M 101 36 " />
</clipPath>
<clipPath id="clip-63">
<path clip-rule="nonzero" d="M 283 34.671875 L 291 34.671875 L 291 41 L 283 41 Z M 283 34.671875 " />
</clipPath>
<clipPath id="clip-64">
<path clip-rule="nonzero" d="M 291 36 L 301 36 L 301 43 L 291 43 Z M 291 36 " />
</clipPath>
<clipPath id="clip-65">
<path clip-rule="nonzero" d="M 38 387 L 45 387 L 45 397 L 38 397 Z M 38 387 " />
</clipPath>
<clipPath id="clip-66">
<path clip-rule="nonzero" d="M 353 387 L 359 387 L 359 396.246094 L 353 396.246094 Z M 353 387 " />
</clipPath>
<clipPath id="clip-67">
<path clip-rule="nonzero" d="M 13 365.777344 L 20 365.777344 L 20 376 L 13 376 Z M 13 365.777344 " />
</clipPath>
<clipPath id="clip-68">
<path clip-rule="nonzero" d="M 13 46.375 L 20 46.375 L 20 55.621094 L 13 55.621094 Z M 13 46.375 " />
</clipPath>
</defs>
<path fill="none" stroke-width="0.4" stroke-linecap="butt" stroke-linejoin="round" stroke-opacity="1" stroke-miterlimit="10" d="M 256 384 L 256 768 " transform="matrix(1, 0, 0, -1, -60, 787)" class="stroke" />
<path fill-rule="evenodd" fill-opacity="1" stroke-width="0.4" stroke-linecap="butt" stroke-linejoin="round" stroke-opacity="1" stroke-miterlimit="10" d="M 256 768 L 253.667969 761 L 258.332031 761 Z M 256 768 " transform="matrix(1, 0, 0, -1, -60, 787)" class="fill stroke" />
<path fill="none" stroke-width="0.4" stroke-linecap="butt" stroke-linejoin="round" stroke-opacity="1" stroke-miterlimit="10" d="M 64 576 L 448 576 " transform="matrix(1, 0, 0, -1, -60, 787)" class="stroke" />
<path fill-rule="evenodd" fill-opacity="1" stroke-width="0.4" stroke-linecap="butt" stroke-linejoin="round" stroke-opacity="1" stroke-miterlimit="10" d="M 448 576 L 441 578.332031 L 441 573.667969 Z M 448 576 " transform="matrix(1, 0, 0, -1, -60, 787)" class="fill stroke" />
<path fill-rule="evenodd" fill-opacity="1" d="M 231 179 C 231 175 225 175 225 179 C 225 183 231 183 231 179 Z M 231 179 " class="fill" />
<path fill-rule="evenodd" fill-opacity="1" d="M 295 179 C 295 175 289 175 289 179 C 289 183 295 183 295 179 Z M 295 179 " class="fill" />
<path fill-rule="evenodd" fill-opacity="1" d="M 295 115 C 295 111 289 111 289 115 C 289 119 295 119 295 115 Z M 295 115 " class="fill" />
<path fill-rule="evenodd" fill-opacity="1" d="M 231 115 C 231 111 225 111 225 115 C 225 119 231 119 231 115 Z M 231 115 " class="fill" />
<path fill-rule="evenodd" fill-opacity="1" d="M 167 115 C 167 111 161 111 161 115 C 161 119 167 119 167 115 Z M 167 115 " class="fill" />
<path fill-rule="evenodd" fill-opacity="1" d="M 103 115 C 103 111 97 111 97 115 C 97 119 103 119 103 115 Z M 103 115 " class="fill" />
<path fill-rule="evenodd" fill-opacity="1" d="M 167 179 C 167 175 161 175 161 179 C 161 183 167 183 167 179 Z M 167 179 " class="fill" />
<path fill-rule="evenodd" fill-opacity="1" d="M 103 179 C 103 175 97 175 97 179 C 97 183 103 183 103 179 Z M 103 179 " class="fill" />
<path fill="none" stroke-width="0.4" stroke-linecap="butt" stroke-linejoin="round" stroke-opacity="1" stroke-miterlimit="10" d="M 252 672 L 260 672 " transform="matrix(1, 0, 0, -1, -60, 787)" class="stroke" />
<path fill="none" stroke-width="0.4" stroke-linecap="butt" stroke-linejoin="round" stroke-opacity="1" stroke-miterlimit="10" d="M 252 640 L 260 640 " transform="matrix(1, 0, 0, -1, -60, 787)" class="stroke" />
<path fill="none" stroke-width="0.4" stroke-linecap="butt" stroke-linejoin="round" stroke-opacity="1" stroke-miterlimit="10" d="M 252 608 L 260 608 " transform="matrix(1, 0, 0, -1, -60, 787)" class="stroke" />
<path fill="none" stroke-width="0.4" stroke-linecap="butt" stroke-linejoin="round" stroke-opacity="1" stroke-miterlimit="10" d="M 252 544 L 260 544 " transform="matrix(1, 0, 0, -1, -60, 787)" class="stroke" />
<path fill="none" stroke-width="0.4" stroke-linecap="butt" stroke-linejoin="round" stroke-opacity="1" stroke-miterlimit="10" d="M 252 512 L 260 512 " transform="matrix(1, 0, 0, -1, -60, 787)" class="stroke" />
<path fill="none" stroke-width="0.4" stroke-linecap="butt" stroke-linejoin="round" stroke-opacity="1" stroke-miterlimit="10" d="M 252 480 L 260 480 " transform="matrix(1, 0, 0, -1, -60, 787)" class="stroke" />
<path fill="none" stroke-width="0.4" stroke-linecap="butt" stroke-linejoin="round" stroke-opacity="1" stroke-miterlimit="10" d="M 288 580 L 288 572 " transform="matrix(1, 0, 0, -1, -60, 787)" class="stroke" />
<path fill="none" stroke-width="0.4" stroke-linecap="butt" stroke-linejoin="round" stroke-opacity="1" stroke-miterlimit="10" d="M 320 580 L 320 572 " transform="matrix(1, 0, 0, -1, -60, 787)" class="stroke" />
<path fill="none" stroke-width="0.4" stroke-linecap="butt" stroke-linejoin="round" stroke-opacity="1" stroke-miterlimit="10" d="M 352 580 L 352 572 " transform="matrix(1, 0, 0, -1, -60, 787)" class="stroke" />
<path fill="none" stroke-width="0.4" stroke-linecap="butt" stroke-linejoin="round" stroke-opacity="1" stroke-miterlimit="10" d="M 224 580 L 224 572 " transform="matrix(1, 0, 0, -1, -60, 787)" class="stroke" />
<path fill="none" stroke-width="0.4" stroke-linecap="butt" stroke-linejoin="round" stroke-opacity="1" stroke-miterlimit="10" d="M 192 580 L 192 572 " transform="matrix(1, 0, 0, -1, -60, 787)" class="stroke" />
<path fill="none" stroke-width="0.4" stroke-linecap="butt" stroke-linejoin="round" stroke-opacity="1" stroke-miterlimit="10" d="M 160 580 L 160 572 " transform="matrix(1, 0, 0, -1, -60, 787)" class="stroke" />
<path fill-rule="evenodd" fill-opacity="1" d="M 231 307 C 231 303 225 303 225 307 C 225 311 231 311 231 307 Z M 231 307 " class="fill" />
<path fill-rule="evenodd" fill-opacity="1" d="M 295 307 C 295 303 289 303 289 307 C 289 311 295 311 295 307 Z M 295 307 " class="fill" />
<path fill-rule="evenodd" fill-opacity="1" d="M 295 243 C 295 239 289 239 289 243 C 289 247 295 247 295 243 Z M 295 243 " class="fill" />
<path fill-rule="evenodd" fill-opacity="1" d="M 231 243 C 231 239 225 239 225 243 C 225 247 231 247 231 243 Z M 231 243 " class="fill" />
<path fill-rule="evenodd" fill-opacity="1" d="M 167 243 C 167 239 161 239 161 243 C 161 247 167 247 167 243 Z M 167 243 " class="fill" />
<path fill-rule="evenodd" fill-opacity="1" d="M 103 243 C 103 239 97 239 97 243 C 97 247 103 247 103 243 Z M 103 243 " class="fill" />
<path fill-rule="evenodd" fill-opacity="1" d="M 167 307 C 167 303 161 303 161 307 C 161 311 167 311 167 307 Z M 167 307 " class="fill" />
<path fill-rule="evenodd" fill-opacity="1" d="M 103 307 C 103 303 97 303 97 307 C 97 311 103 311 103 307 Z M 103 307 " class="fill" />
<path fill="none" stroke-width="0.4" stroke-linecap="butt" stroke-linejoin="round" stroke-opacity="1" stroke-miterlimit="10" d="M 252 544 L 260 544 " transform="matrix(1, 0, 0, -1, -60, 787)" class="stroke" />
<path fill="none" stroke-width="0.4" stroke-linecap="butt" stroke-linejoin="round" stroke-opacity="1" stroke-miterlimit="10" d="M 252 512 L 260 512 " transform="matrix(1, 0, 0, -1, -60, 787)" class="stroke" />
<path fill="none" stroke-width="0.4" stroke-linecap="butt" stroke-linejoin="round" stroke-opacity="1" stroke-miterlimit="10" d="M 252 480 L 260 480 " transform="matrix(1, 0, 0, -1, -60, 787)" class="stroke" />
<g fill-opacity="1" class="fill">
<use ns1:href="#glyph-0-0" x="90.909" y="396.245" />
</g>
<g clip-path="url(#clip-0)">
<g fill-opacity="1" class="fill">
<use ns1:href="#glyph-1-0" x="102.055997" y="396.245" />
</g>
</g>
<g fill-opacity="1" class="fill">
<use ns1:href="#glyph-0-0" x="154.909" y="396.245" />
</g>
<g clip-path="url(#clip-1)">
<g fill-opacity="1" class="fill">
<use ns1:href="#glyph-1-1" x="166.055997" y="396.245" />
</g>
</g>
<g clip-path="url(#clip-2)">
<g fill-opacity="1" class="fill">
<use ns1:href="#glyph-2-0" x="224.488" y="396.245" />
</g>
</g>
<g clip-path="url(#clip-3)">
<g fill-opacity="1" class="fill">
<use ns1:href="#glyph-2-1" x="288.488" y="396.245" />
</g>
</g>
<g fill-opacity="1" class="fill">
<use ns1:href="#glyph-0-0" x="1.818" y="311.0245" />
</g>
<g clip-path="url(#clip-4)">
<g fill-opacity="1" class="fill">
<use ns1:href="#glyph-1-0" x="12.964997" y="311.0245" />
</g>
</g>
<path fill="none" stroke-width="0.4" stroke-linecap="butt" stroke-linejoin="round" stroke-opacity="1" stroke-dasharray="4" stroke-miterlimit="10" d="M 160 576 L 160 736.003906 " transform="matrix(1, 0, 0, -1, -60, 787)" class="stroke" />
<path fill="none" stroke-width="0.4" stroke-linecap="butt" stroke-linejoin="round" stroke-opacity="1" stroke-dasharray="4" stroke-miterlimit="10" d="M 160 576 L 160 416 " transform="matrix(1, 0, 0, -1, -60, 787)" class="stroke" />
<path fill="none" stroke-width="0.4" stroke-linecap="butt" stroke-linejoin="round" stroke-opacity="1" stroke-dasharray="4" stroke-miterlimit="10" d="M 224 576 L 224 736.003906 " transform="matrix(1, 0, 0, -1, -60, 787)" class="stroke" />
<path fill="none" stroke-width="0.4" stroke-linecap="butt" stroke-linejoin="round" stroke-opacity="1" stroke-dasharray="4" stroke-miterlimit="10" d="M 224 576 L 224 416 " transform="matrix(1, 0, 0, -1, -60, 787)" class="stroke" />
<path fill="none" stroke-width="0.4" stroke-linecap="butt" stroke-linejoin="round" stroke-opacity="1" stroke-dasharray="4" stroke-miterlimit="10" d="M 288 576 L 288 736.003906 " transform="matrix(1, 0, 0, -1, -60, 787)" class="stroke" />
<path fill="none" stroke-width="0.4" stroke-linecap="butt" stroke-linejoin="round" stroke-opacity="1" stroke-dasharray="4" stroke-miterlimit="10" d="M 288 576 L 288 416 " transform="matrix(1, 0, 0, -1, -60, 787)" class="stroke" />
<path fill="none" stroke-width="0.4" stroke-linecap="butt" stroke-linejoin="round" stroke-opacity="1" stroke-dasharray="4" stroke-miterlimit="10" d="M 352 576 L 352 736.003906 " transform="matrix(1, 0, 0, -1, -60, 787)" class="stroke" />
<path fill="none" stroke-width="0.4" stroke-linecap="butt" stroke-linejoin="round" stroke-opacity="1" stroke-dasharray="4" stroke-miterlimit="10" d="M 352 576 L 352 416 " transform="matrix(1, 0, 0, -1, -60, 787)" class="stroke" />
<path fill="none" stroke-width="0.4" stroke-linecap="butt" stroke-linejoin="round" stroke-opacity="1" stroke-dasharray="4" stroke-miterlimit="10" d="M 256 672 L 416 672 " transform="matrix(1, 0, 0, -1, -60, 787)" class="stroke" />
<path fill="none" stroke-width="0.4" stroke-linecap="butt" stroke-linejoin="round" stroke-opacity="1" stroke-dasharray="4" stroke-miterlimit="10" d="M 256 672 L 96 672 " transform="matrix(1, 0, 0, -1, -60, 787)" class="stroke" />
<path fill="none" stroke-width="0.4" stroke-linecap="butt" stroke-linejoin="round" stroke-opacity="1" stroke-dasharray="4" stroke-miterlimit="10" d="M 256 608 L 416 608 " transform="matrix(1, 0, 0, -1, -60, 787)" class="stroke" />
<path fill="none" stroke-width="0.4" stroke-linecap="butt" stroke-linejoin="round" stroke-opacity="1" stroke-dasharray="4" stroke-miterlimit="10" d="M 256 608 L 96 608 " transform="matrix(1, 0, 0, -1, -60, 787)" class="stroke" />
<path fill="none" stroke-width="0.4" stroke-linecap="butt" stroke-linejoin="round" stroke-opacity="1" stroke-dasharray="4" stroke-miterlimit="10" d="M 256 544 L 416 544 " transform="matrix(1, 0, 0, -1, -60, 787)" class="stroke" />
<path fill="none" stroke-width="0.4" stroke-linecap="butt" stroke-linejoin="round" stroke-opacity="1" stroke-dasharray="4" stroke-miterlimit="10" d="M 256 544 L 96 544 " transform="matrix(1, 0, 0, -1, -60, 787)" class="stroke" />
<path fill="none" stroke-width="0.4" stroke-linecap="butt" stroke-linejoin="round" stroke-opacity="1" stroke-dasharray="4" stroke-miterlimit="10" d="M 256 480 L 416 480 " transform="matrix(1, 0, 0, -1, -60, 787)" class="stroke" />
<path fill="none" stroke-width="0.4" stroke-linecap="butt" stroke-linejoin="round" stroke-opacity="1" stroke-dasharray="4" stroke-miterlimit="10" d="M 256 480 L 96 480 " transform="matrix(1, 0, 0, -1, -60, 787)" class="stroke" />
<g clip-path="url(#clip-5)">
<g fill-opacity="1" class="fill">
<use ns1:href="#glyph-2-0" x="12.976" y="183.6225" />
</g>
</g>
<g clip-path="url(#clip-6)">
<g fill-opacity="1" class="fill">
<use ns1:href="#glyph-2-1" x="12.976" y="119.6225" />
</g>
</g>
<g fill-opacity="1" class="fill">
<use ns1:href="#glyph-0-0" x="1.818" y="247.0245" />
</g>
<g clip-path="url(#clip-7)">
<g fill-opacity="1" class="fill">
<use ns1:href="#glyph-1-1" x="12.964997" y="247.0245" />
</g>
</g>
<g clip-path="url(#clip-8)">
<g fill-opacity="1" class="fill">
<use ns1:href="#glyph-3-0" x="396" y="215.9015" />
<use ns1:href="#glyph-3-1" x="406.329264" y="215.9015" />
</g>
</g>
<g clip-path="url(#clip-9)">
<g fill-opacity="1" class="fill">
<use ns1:href="#glyph-3-2" x="187.613" y="11" />
<use ns1:href="#glyph-3-3" x="192.677209" y="11" />
</g>
</g>
<g clip-path="url(#clip-10)">
<g fill-opacity="1" class="fill">
<use ns1:href="#glyph-4-0" x="93.269" y="296.848" />
</g>
</g>
<g clip-path="url(#clip-11)">
<g fill-opacity="1" class="fill">
<use ns1:href="#glyph-5-0" x="101.251" y="299" />
</g>
</g>
<g clip-path="url(#clip-12)">
<g fill-opacity="1" class="fill">
<use ns1:href="#glyph-4-0" x="154.7785" y="296.848" />
</g>
</g>
<g fill-opacity="1" class="fill">
<use ns1:href="#glyph-5-1" x="162.7605" y="299" />
<use ns1:href="#glyph-5-1" x="167.7418" y="299" />
</g>
<g clip-path="url(#clip-13)">
<g fill-opacity="1" class="fill">
<use ns1:href="#glyph-4-0" x="218.7785" y="296.848" />
</g>
</g>
<g clip-path="url(#clip-14)">
<g fill-opacity="1" class="fill">
<use ns1:href="#glyph-5-1" x="226.7605" y="299" />
<use ns1:href="#glyph-5-2" x="231.7418" y="299" />
</g>
</g>
<g clip-path="url(#clip-15)">
<g fill-opacity="1" class="fill">
<use ns1:href="#glyph-4-0" x="282.7785" y="296.848" />
</g>
</g>
<g clip-path="url(#clip-16)">
<g fill-opacity="1" class="fill">
<use ns1:href="#glyph-5-3" x="290.7605" y="299" />
<use ns1:href="#glyph-5-4" x="295.7418" y="299" />
</g>
</g>
<g clip-path="url(#clip-17)">
<g fill-opacity="1" class="fill">
<use ns1:href="#glyph-4-0" x="93.269" y="168.848" />
</g>
</g>
<g clip-path="url(#clip-18)">
<g fill-opacity="1" class="fill">
<use ns1:href="#glyph-5-2" x="101.251" y="171" />
</g>
</g>
<g clip-path="url(#clip-19)">
<g fill-opacity="1" class="fill">
<use ns1:href="#glyph-4-0" x="154.7785" y="168.848" />
</g>
</g>
<g clip-path="url(#clip-20)">
<g fill-opacity="1" class="fill">
<use ns1:href="#glyph-5-1" x="162.7605" y="171" />
<use ns1:href="#glyph-5-4" x="167.7418" y="171" />
</g>
</g>
<g clip-path="url(#clip-21)">
<g fill-opacity="1" class="fill">
<use ns1:href="#glyph-4-0" x="218.7785" y="168.848" />
</g>
</g>
<g clip-path="url(#clip-22)">
<g fill-opacity="1" class="fill">
<use ns1:href="#glyph-5-1" x="226.7605" y="171" />
<use ns1:href="#glyph-5-5" x="231.7418" y="171" />
</g>
</g>
<g clip-path="url(#clip-23)">
<g fill-opacity="1" class="fill">
<use ns1:href="#glyph-4-0" x="282.7785" y="168.848" />
</g>
</g>
<g clip-path="url(#clip-24)">
<g fill-opacity="1" class="fill">
<use ns1:href="#glyph-5-3" x="290.7605" y="171" />
<use ns1:href="#glyph-5-0" x="295.7418" y="171" />
</g>
</g>
<g clip-path="url(#clip-25)">
<g fill-opacity="1" class="fill">
<use ns1:href="#glyph-4-0" x="93.269" y="232.848" />
</g>
</g>
<g clip-path="url(#clip-26)">
<g fill-opacity="1" class="fill">
<use ns1:href="#glyph-5-6" x="101.251" y="235" />
</g>
</g>
<g clip-path="url(#clip-27)">
<g fill-opacity="1" class="fill">
<use ns1:href="#glyph-4-0" x="154.7785" y="232.848" />
</g>
</g>
<g fill-opacity="1" class="fill">
<use ns1:href="#glyph-5-1" x="162.7605" y="235" />
<use ns1:href="#glyph-5-3" x="167.7418" y="235" />
</g>
<g clip-path="url(#clip-28)">
<g fill-opacity="1" class="fill">
<use ns1:href="#glyph-4-0" x="218.7785" y="232.848" />
</g>
</g>
<g clip-path="url(#clip-29)">
<g fill-opacity="1" class="fill">
<use ns1:href="#glyph-5-1" x="226.7605" y="235" />
<use ns1:href="#glyph-5-7" x="231.7418" y="235" />
</g>
</g>
<g clip-path="url(#clip-30)">
<g fill-opacity="1" class="fill">
<use ns1:href="#glyph-4-0" x="282.7785" y="232.848" />
</g>
</g>
<g fill-opacity="1" class="fill">
<use ns1:href="#glyph-5-3" x="290.7605" y="235" />
<use ns1:href="#glyph-5-8" x="295.7418" y="235" />
</g>
<g clip-path="url(#clip-31)">
<g fill-opacity="1" class="fill">
<use ns1:href="#glyph-4-0" x="93.269" y="104.848" />
</g>
</g>
<g clip-path="url(#clip-32)">
<g fill-opacity="1" class="fill">
<use ns1:href="#glyph-5-7" x="101.251" y="107" />
</g>
</g>
<g clip-path="url(#clip-33)">
<g fill-opacity="1" class="fill">
<use ns1:href="#glyph-4-0" x="154.7785" y="104.848" />
</g>
</g>
<g fill-opacity="1" class="fill">
<use ns1:href="#glyph-5-1" x="162.7605" y="107" />
<use ns1:href="#glyph-5-8" x="167.7418" y="107" />
</g>
<g clip-path="url(#clip-34)">
<g fill-opacity="1" class="fill">
<use ns1:href="#glyph-4-0" x="218.7785" y="104.848" />
</g>
</g>
<g clip-path="url(#clip-35)">
<g fill-opacity="1" class="fill">
<use ns1:href="#glyph-5-3" x="226.7605" y="107" />
<use ns1:href="#glyph-5-9" x="231.7418" y="107" />
</g>
</g>
<g clip-path="url(#clip-36)">
<g fill-opacity="1" class="fill">
<use ns1:href="#glyph-4-0" x="282.7785" y="104.848" />
</g>
</g>
<g clip-path="url(#clip-37)">
<g fill-opacity="1" class="fill">
<use ns1:href="#glyph-5-3" x="290.7605" y="107" />
<use ns1:href="#glyph-5-6" x="295.7418" y="107" />
</g>
</g>
<path fill-rule="evenodd" fill-opacity="1" d="M 359 179 C 359 175 353 175 353 179 C 353 183 359 183 359 179 Z M 359 179 " class="fill" />
<path fill="none" stroke-width="0.4" stroke-linecap="butt" stroke-linejoin="round" stroke-opacity="1" stroke-miterlimit="10" d="M 416 580 L 416 572 " transform="matrix(1, 0, 0, -1, -60, 787)" class="stroke" />
<path fill="none" stroke-width="0.4" stroke-linecap="butt" stroke-linejoin="round" stroke-opacity="1" stroke-miterlimit="10" d="M 448 580 L 448 572 " transform="matrix(1, 0, 0, -1, -60, 787)" class="stroke" />
<path fill-rule="evenodd" fill-opacity="1" d="M 359 243 C 359 239 353 239 353 243 C 353 247 359 247 359 243 Z M 359 243 " class="fill" />
<g clip-path="url(#clip-38)">
<g fill-opacity="1" class="fill">
<use ns1:href="#glyph-4-0" x="346.7785" y="232.848" />
</g>
</g>
<g clip-path="url(#clip-39)">
<g fill-opacity="1" class="fill">
<use ns1:href="#glyph-5-3" x="354.7605" y="235" />
<use ns1:href="#glyph-5-5" x="359.7418" y="235" />
</g>
</g>
<g clip-path="url(#clip-40)">
<g fill-opacity="1" class="fill">
<use ns1:href="#glyph-4-0" x="346.7785" y="168.848" />
</g>
</g>
<g clip-path="url(#clip-41)">
<g fill-opacity="1" class="fill">
<use ns1:href="#glyph-5-4" x="354.7605" y="171" />
<use ns1:href="#glyph-5-9" x="359.7418" y="171" />
</g>
</g>
<path fill-rule="evenodd" fill-opacity="1" d="M 359 115 C 359 111 353 111 353 115 C 353 119 359 119 359 115 Z M 359 115 " class="fill" />
<g clip-path="url(#clip-42)">
<g fill-opacity="1" class="fill">
<use ns1:href="#glyph-4-0" x="346.7785" y="104.848" />
</g>
</g>
<g clip-path="url(#clip-43)">
<g fill-opacity="1" class="fill">
<use ns1:href="#glyph-5-4" x="354.7605" y="107" />
<use ns1:href="#glyph-5-1" x="359.7418" y="107" />
</g>
</g>
<path fill-rule="evenodd" fill-opacity="1" d="M 359 307 C 359 303 353 303 353 307 C 353 311 359 311 359 307 Z M 359 307 " class="fill" />
<g clip-path="url(#clip-44)">
<g fill-opacity="1" class="fill">
<use ns1:href="#glyph-4-0" x="346.7785" y="296.848" />
</g>
</g>
<g clip-path="url(#clip-45)">
<g fill-opacity="1" class="fill">
<use ns1:href="#glyph-5-3" x="354.7605" y="299" />
<use ns1:href="#glyph-5-7" x="359.7418" y="299" />
</g>
</g>
<path fill-rule="evenodd" fill-opacity="1" d="M 295 371 C 295 367 289 367 289 371 C 289 375 295 375 295 371 Z M 295 371 " class="fill" />
<g clip-path="url(#clip-46)">
<g fill-opacity="1" class="fill">
<use ns1:href="#glyph-4-0" x="282.7785" y="360.848" />
</g>
</g>
<g fill-opacity="1" class="fill">
<use ns1:href="#glyph-5-3" x="290.7605" y="363" />
<use ns1:href="#glyph-5-3" x="295.7418" y="363" />
</g>
<path fill-rule="evenodd" fill-opacity="1" d="M 231 371 C 231 367 225 367 225 371 C 225 375 231 375 231 371 Z M 231 371 " class="fill" />
<g clip-path="url(#clip-47)">
<g fill-opacity="1" class="fill">
<use ns1:href="#glyph-4-0" x="218.7785" y="360.848" />
</g>
</g>
<g clip-path="url(#clip-48)">
<g fill-opacity="1" class="fill">
<use ns1:href="#glyph-5-1" x="226.7605" y="363" />
<use ns1:href="#glyph-5-6" x="231.7418" y="363" />
</g>
</g>
<path fill-rule="evenodd" fill-opacity="1" d="M 167 371 C 167 367 161 367 161 371 C 161 375 167 375 167 371 Z M 167 371 " class="fill" />
<g clip-path="url(#clip-49)">
<g fill-opacity="1" class="fill">
<use ns1:href="#glyph-4-0" x="154.7785" y="360.848" />
</g>
</g>
<g clip-path="url(#clip-50)">
<g fill-opacity="1" class="fill">
<use ns1:href="#glyph-5-1" x="162.7605" y="363" />
<use ns1:href="#glyph-5-9" x="167.7418" y="363" />
</g>
</g>
<path fill-rule="evenodd" fill-opacity="1" d="M 103 371 C 103 367 97 367 97 371 C 97 375 103 375 103 371 Z M 103 371 " class="fill" />
<g clip-path="url(#clip-51)">
<g fill-opacity="1" class="fill">
<use ns1:href="#glyph-4-0" x="93.269" y="360.848" />
</g>
</g>
<g fill-opacity="1" class="fill">
<use ns1:href="#glyph-5-8" x="101.251" y="363" />
</g>
<path fill-rule="evenodd" fill-opacity="1" d="M 39 307 C 39 303 33 303 33 307 C 33 311 39 311 39 307 Z M 39 307 " class="fill" />
<g clip-path="url(#clip-52)">
<g fill-opacity="1" class="fill">
<use ns1:href="#glyph-4-0" x="29.269" y="296.848" />
</g>
</g>
<g clip-path="url(#clip-53)">
<g fill-opacity="1" class="fill">
<use ns1:href="#glyph-5-9" x="37.251" y="299" />
</g>
</g>
<path fill-rule="evenodd" fill-opacity="1" d="M 39 243 C 39 239 33 239 33 243 C 33 247 39 247 39 243 Z M 39 243 " class="fill" />
<g clip-path="url(#clip-54)">
<g fill-opacity="1" class="fill">
<use ns1:href="#glyph-4-0" x="29.269" y="232.848" />
</g>
</g>
<g fill-opacity="1" class="fill">
<use ns1:href="#glyph-5-1" x="37.251" y="235" />
</g>
<path fill-rule="evenodd" fill-opacity="1" d="M 39 179 C 39 175 33 175 33 179 C 33 183 39 183 39 179 Z M 39 179 " class="fill" />
<g clip-path="url(#clip-55)">
<g fill-opacity="1" class="fill">
<use ns1:href="#glyph-4-0" x="29.269" y="168.848" />
</g>
</g>
<g fill-opacity="1" class="fill">
<use ns1:href="#glyph-5-3" x="37.251" y="171" />
</g>
<path fill-rule="evenodd" fill-opacity="1" d="M 39 115 C 39 111 33 111 33 115 C 33 119 39 119 39 115 Z M 39 115 " class="fill" />
<g clip-path="url(#clip-56)">
<g fill-opacity="1" class="fill">
<use ns1:href="#glyph-4-0" x="29.269" y="104.848" />
</g>
</g>
<g clip-path="url(#clip-57)">
<g fill-opacity="1" class="fill">
<use ns1:href="#glyph-5-4" x="37.251" y="107" />
</g>
</g>
<path fill-rule="evenodd" fill-opacity="1" d="M 167 51 C 167 47 161 47 161 51 C 161 55 167 55 167 51 Z M 167 51 " class="fill" />
<g clip-path="url(#clip-58)">
<g fill-opacity="1" class="fill">
<use ns1:href="#glyph-4-0" x="154.7785" y="40.848" />
</g>
</g>
<g clip-path="url(#clip-59)">
<g fill-opacity="1" class="fill">
<use ns1:href="#glyph-5-1" x="162.7605" y="43" />
<use ns1:href="#glyph-5-0" x="167.7418" y="43" />
</g>
</g>
<path fill-rule="evenodd" fill-opacity="1" d="M 231 51 C 231 47 225 47 225 51 C 225 55 231 55 231 51 Z M 231 51 " class="fill" />
<g clip-path="url(#clip-60)">
<g fill-opacity="1" class="fill">
<use ns1:href="#glyph-4-0" x="218.7785" y="40.848" />
</g>
</g>
<g fill-opacity="1" class="fill">
<use ns1:href="#glyph-5-3" x="226.7605" y="43" />
<use ns1:href="#glyph-5-1" x="231.7418" y="43" />
</g>
<path fill-rule="evenodd" fill-opacity="1" d="M 103 51 C 103 47 97 47 97 51 C 97 55 103 55 103 51 Z M 103 51 " class="fill" />
<g clip-path="url(#clip-61)">
<g fill-opacity="1" class="fill">
<use ns1:href="#glyph-4-0" x="93.269" y="40.848" />
</g>
</g>
<g clip-path="url(#clip-62)">
<g fill-opacity="1" class="fill">
<use ns1:href="#glyph-5-5" x="101.251" y="43" />
</g>
</g>
<path fill-rule="evenodd" fill-opacity="1" d="M 295 51 C 295 47 289 47 289 51 C 289 55 295 55 295 51 Z M 295 51 " class="fill" />
<g clip-path="url(#clip-63)">
<g fill-opacity="1" class="fill">
<use ns1:href="#glyph-4-0" x="282.7785" y="40.848" />
</g>
</g>
<g clip-path="url(#clip-64)">
<g fill-opacity="1" class="fill">
<use ns1:href="#glyph-5-3" x="290.7605" y="43" />
<use ns1:href="#glyph-5-2" x="295.7418" y="43" />
</g>
</g>
<g fill-opacity="1" class="fill">
<use ns1:href="#glyph-0-0" x="26.909" y="396.245" />
</g>
<g clip-path="url(#clip-65)">
<g fill-opacity="1" class="fill">
<use ns1:href="#glyph-1-2" x="38.055997" y="396.245" />
</g>
</g>
<g clip-path="url(#clip-66)">
<g fill-opacity="1" class="fill">
<use ns1:href="#glyph-2-2" x="352.488" y="396.245" />
</g>
</g>
<g fill-opacity="1" class="fill">
<use ns1:href="#glyph-0-0" x="1.818" y="375.0245" />
</g>
<g clip-path="url(#clip-67)">
<g fill-opacity="1" class="fill">
<use ns1:href="#glyph-1-2" x="12.964997" y="375.0245" />
</g>
</g>
<g clip-path="url(#clip-68)">
<g fill-opacity="1" class="fill">
<use ns1:href="#glyph-2-2" x="12.976" y="55.6225" />
</g>
</g>
<path fill="none" stroke-width="0.4" stroke-linecap="butt" stroke-linejoin="round" stroke-opacity="1" stroke-dasharray="4" stroke-miterlimit="10" d="M 96 576 L 96 480 " transform="matrix(1, 0, 0, -1, -60, 787)" class="stroke" />
<path fill="none" stroke-width="0.4" stroke-linecap="butt" stroke-linejoin="round" stroke-opacity="1" stroke-dasharray="4" stroke-miterlimit="10" d="M 416 576 L 416 480 " transform="matrix(1, 0, 0, -1, -60, 787)" class="stroke" />
<path fill="none" stroke-width="0.4" stroke-linecap="butt" stroke-linejoin="round" stroke-opacity="1" stroke-dasharray="4" stroke-miterlimit="10" d="M 96 576 L 96 672 " transform="matrix(1, 0, 0, -1, -60, 787)" class="stroke" />
<path fill="none" stroke-width="0.4" stroke-linecap="butt" stroke-linejoin="round" stroke-opacity="1" stroke-dasharray="4" stroke-miterlimit="10" d="M 416 576 L 416 672 " transform="matrix(1, 0, 0, -1, -60, 787)" class="stroke" />
<path fill="none" stroke-width="0.4" stroke-linecap="butt" stroke-linejoin="round" stroke-opacity="1" stroke-dasharray="4" stroke-miterlimit="10" d="M 256 416 L 160 416 " transform="matrix(1, 0, 0, -1, -60, 787)" class="stroke" />
<path fill="none" stroke-width="0.4" stroke-linecap="butt" stroke-linejoin="round" stroke-opacity="1" stroke-dasharray="4" stroke-miterlimit="10" d="M 256 416 L 352 416 " transform="matrix(1, 0, 0, -1, -60, 787)" class="stroke" />
<path fill="none" stroke-width="0.4" stroke-linecap="butt" stroke-linejoin="round" stroke-opacity="1" stroke-miterlimit="10" d="M 384 580 L 384 572 " transform="matrix(1, 0, 0, -1, -60, 787)" class="stroke" />
<path fill="none" stroke-width="0.4" stroke-linecap="butt" stroke-linejoin="round" stroke-opacity="1" stroke-miterlimit="10" d="M 128 580 L 128 572 " transform="matrix(1, 0, 0, -1, -60, 787)" class="stroke" />
<path fill="none" stroke-width="0.4" stroke-linecap="butt" stroke-linejoin="round" stroke-opacity="1" stroke-miterlimit="10" d="M 96 580 L 96 572 " transform="matrix(1, 0, 0, -1, -60, 787)" class="stroke" />
<path fill="none" stroke-width="0.4" stroke-linecap="butt" stroke-linejoin="round" stroke-opacity="1" stroke-miterlimit="10" d="M 252 704 L 260 704 " transform="matrix(1, 0, 0, -1, -60, 787)" class="stroke" />
<path fill="none" stroke-width="0.4" stroke-linecap="butt" stroke-linejoin="round" stroke-opacity="1" stroke-miterlimit="10" d="M 252 736 L 260 736 " transform="matrix(1, 0, 0, -1, -60, 787)" class="stroke" />
<path fill="none" stroke-width="0.4" stroke-linecap="butt" stroke-linejoin="round" stroke-opacity="1" stroke-miterlimit="10" d="M 252 448 L 260 448 " transform="matrix(1, 0, 0, -1, -60, 787)" class="stroke" />
<path fill="none" stroke-width="0.4" stroke-linecap="butt" stroke-linejoin="round" stroke-opacity="1" stroke-miterlimit="10" d="M 252 448 L 260 448 " transform="matrix(1, 0, 0, -1, -60, 787)" class="stroke" />
<path fill="none" stroke-width="0.4" stroke-linecap="butt" stroke-linejoin="round" stroke-opacity="1" stroke-miterlimit="10" d="M 252 416 L 260 416 " transform="matrix(1, 0, 0, -1, -60, 787)" class="stroke" />
<path fill="none" stroke-width="0.4" stroke-linecap="butt" stroke-linejoin="round" stroke-opacity="1" stroke-miterlimit="10" d="M 252 416 L 260 416 " transform="matrix(1, 0, 0, -1, -60, 787)" class="stroke" />
<path fill="none" stroke-width="0.4" stroke-linecap="butt" stroke-linejoin="round" stroke-opacity="1" stroke-dasharray="4" stroke-miterlimit="10" d="M 256 736 L 352 736 " transform="matrix(1, 0, 0, -1, -60, 787)" class="stroke" />
<path fill="none" stroke-width="0.4" stroke-linecap="butt" stroke-linejoin="round" stroke-opacity="1" stroke-dasharray="4" stroke-miterlimit="10" d="M 256 736 L 160 736 " transform="matrix(1, 0, 0, -1, -60, 787)" class="stroke" />
</svg>